<?xml version="1.0" encoding="UTF-8" standalone="no"?>
<!DOCTYPE svg PUBLIC "-//W3C//DTD SVG 1.1//EN"
 "http://www.w3.org/Graphics/SVG/1.1/DTD/svg11.dtd">
<!-- Generated by graphviz version 2.43.0 (0)
 -->
<!-- Title: DB Pages: 1 -->
<svg width="530pt" height="172pt"
 viewBox="0.00 0.00 530.00 172.00" xmlns="http://www.w3.org/2000/svg" xmlns:xlink="http://www.w3.org/1999/xlink">
<g id="graph0" class="graph" transform="scale(1 1) rotate(0) translate(4 168)">
<title>DB</title>
<polygon fill="white" stroke="transparent" points="-4,4 -4,-168 526,-168 526,4 -4,4"/>
<!-- users -->
<g id="node1" class="node">
<title>users</title>
<polygon fill="#eef2ff" stroke="transparent" points="8,-4 8,-160 224,-160 224,-4 8,-4"/>
<polygon fill="#c7d2fe" stroke="transparent" points="9,-137 9,-159 223,-159 223,-137 9,-137"/>
<text text-anchor="start" x="99" y="-146.2" font-family="Helvetica,sans-Serif" font-weight="bold" font-size="11.00">users</text>
<text text-anchor="start" x="14" y="-124.2" font-family="Helvetica,sans-Serif" font-weight="bold" font-size="11.00">PK</text>
<text text-anchor="start" x="41" y="-124.2" font-family="Helvetica,sans-Serif" font-weight="bold" font-size="11.00">id</text>
<text text-anchor="start" x="53" y="-124.2" font-family="Helvetica,sans-Serif" font-size="11.00"> : INT &#160;AUTO_INCREMENT</text>
<text text-anchor="start" x="14" y="-101.2" font-family="Helvetica,sans-Serif" font-size="11.00">U</text>
<text text-anchor="start" x="41" y="-101.2" font-family="Helvetica,sans-Serif" font-size="11.00">login : VARCHAR(64) &#160;UNIQUE</text>
<text text-anchor="start" x="41" y="-79.2" font-family="Helvetica,sans-Serif" font-size="11.00">password_hash : VARCHAR(255)</text>
<text text-anchor="start" x="41" y="-57.2" font-family="Helvetica,sans-Serif" font-size="11.00">encrypted_key : TEXT</text>
<text text-anchor="start" x="41" y="-35.2" font-family="Helvetica,sans-Serif" font-size="11.00">key_salt : VARCHAR(64)</text>
<text text-anchor="start" x="41" y="-13.2" font-family="Helvetica,sans-Serif" font-size="11.00">created_at : TIMESTAMP</text>
<polygon fill="none" stroke="black" points="8,-4 8,-160 224,-160 224,-4 8,-4"/>
</g>
<!-- password_entries -->
<g id="node2" class="node">
<title>password_entries</title>
<polygon fill="#eafaf1" stroke="transparent" points="306,-15 306,-149 514,-149 514,-15 306,-15"/>
<polygon fill="#a7f3d0" stroke="transparent" points="307,-126 307,-148 513,-148 513,-126 307,-126"/>
<text text-anchor="start" x="355.5" y="-135.2" font-family="Helvetica,sans-Serif" font-weight="bold" font-size="11.00">password_entries</text>
<text text-anchor="start" x="312" y="-113.2" font-family="Helvetica,sans-Serif" font-weight="bold" font-size="11.00">PK</text>
<text text-anchor="start" x="339" y="-113.2" font-family="Helvetica,sans-Serif" font-weight="bold" font-size="11.00">id</text>
<text text-anchor="start" x="351" y="-113.2" font-family="Helvetica,sans-Serif" font-size="11.00"> : INT &#160;AUTO_INCREMENT</text>
<text text-anchor="start" x="312" y="-91.2" font-family="Helvetica,sans-Serif" font-weight="bold" font-size="11.00">FK</text>
<text text-anchor="start" x="339" y="-90.2" font-family="Helvetica,sans-Serif" font-size="11.00">user_id : INT</text>
<text text-anchor="start" x="339" y="-68.2" font-family="Helvetica,sans-Serif" font-size="11.00">service_name : VARCHAR(128)</text>
<text text-anchor="start" x="339" y="-46.2" font-family="Helvetica,sans-Serif" font-size="11.00">secret_enc : TEXT</text>
<text text-anchor="start" x="339" y="-24.2" font-family="Helvetica,sans-Serif" font-size="11.00">created_at : TIMESTAMP</text>
<polygon fill="none" stroke="black" points="306,-15 306,-149 514,-149 514,-15 306,-15"/>
</g>
<!-- users&#45;&gt;password_entries -->
<g id="edge1" class="edge">
<title>users&#45;&gt;password_entries</title>
<path fill="none" stroke="#374151" d="M232.41,-82C250.56,-82 269.38,-82 287.67,-82"/>
<polygon fill="#374151" stroke="#374151" points="287.77,-82 297.77,-86.5 292.77,-82 297.77,-82 297.77,-82 297.77,-82 292.77,-82 297.77,-77.5 287.77,-82 287.77,-82"/>
<text text-anchor="middle" x="265" y="-85" font-family="Helvetica,sans-Serif" font-size="10.00"> &#160;has &#160;</text>
<text text-anchor="middle" x="294.77" y="-74" font-family="Helvetica,sans-Serif" font-size="10.00">*</text>
<text text-anchor="middle" x="235.91" y="-74" font-family="Helvetica,sans-Serif" font-size="10.00">1</text>
</g>
</g>
</svg>
