<?xml version="1.0" encoding="UTF-8" standalone="no"?>
<!DOCTYPE svg PUBLIC "-//W3C//DTD SVG 1.1//EN"
 "http://www.w3.org/Graphics/SVG/1.1/DTD/svg11.dtd">
<!-- Generated by graphviz version 2.43.0 (0)
 -->
<!-- Title: UML Pages: 1 -->
<svg width="748pt" height="500pt"
 viewBox="0.00 0.00 747.50 500.00" xmlns="http://www.w3.org/2000/svg" xmlns:xlink="http://www.w3.org/1999/xlink">
<g id="graph0" class="graph" transform="scale(1 1) rotate(0) translate(4 496)">
<title>UML</title>
<polygon fill="white" stroke="transparent" points="-4,4 -4,-496 743.5,-496 743.5,4 -4,4"/>
<!-- Database -->
<g id="node1" class="node">
<title>Database</title>
<polygon fill="#eef2ff" stroke="transparent" points="104.5,-392 104.5,-488 265.5,-488 265.5,-392 104.5,-392"/>
<polygon fill="#c7d2fe" stroke="transparent" points="106,-457 106,-487 265,-487 265,-457 106,-457"/>
<text text-anchor="start" x="156" y="-475.2" font-family="Helvetica,sans-Serif" font-weight="bold" font-size="11.00">Database</text>
<text text-anchor="start" x="142" y="-464.2" font-family="Helvetica,sans-Serif" font-style="italic" font-size="11.00">&lt;&lt;singleton&gt;&gt;</text>
<text text-anchor="start" x="110" y="-444.2" font-family="Helvetica,sans-Serif" font-size="11.00">&#45; instance : Database</text>
<text text-anchor="start" x="110" y="-432.2" font-family="Helvetica,sans-Serif" font-size="11.00">&#45; pdo : PDO</text>
<text text-anchor="start" x="110" y="-412.2" font-family="Helvetica,sans-Serif" font-size="11.00">+ getInstance() : Database</text>
<text text-anchor="start" x="110" y="-400.2" font-family="Helvetica,sans-Serif" font-size="11.00">+ pdo() : PDO</text>
<polygon fill="none" stroke="black" points="104.5,-392 104.5,-488 265.5,-488 265.5,-392 104.5,-392"/>
</g>
<!-- Crypto -->
<g id="node2" class="node">
<title>Crypto</title>
<polygon fill="#eef2ff" stroke="transparent" points="321.5,-217 321.5,-337 494.5,-337 494.5,-217 321.5,-217"/>
<polygon fill="#c7d2fe" stroke="transparent" points="323,-306 323,-336 494,-336 494,-306 323,-306"/>
<text text-anchor="start" x="387.5" y="-324.2" font-family="Helvetica,sans-Serif" font-weight="bold" font-size="11.00">Crypto</text>
<text text-anchor="start" x="374.5" y="-313.2" font-family="Helvetica,sans-Serif" font-style="italic" font-size="11.00">&lt;&lt;utility&gt;&gt;</text>
<text text-anchor="start" x="327" y="-293.2" font-family="Helvetica,sans-Serif" font-size="11.00">&#45; CIPHER = aes&#45;256&#45;gcm</text>
<text text-anchor="start" x="327" y="-281.2" font-family="Helvetica,sans-Serif" font-size="11.00">&#45; KDF_ITERATIONS = 200000</text>
<text text-anchor="start" x="327" y="-261.2" font-family="Helvetica,sans-Serif" font-size="11.00">+ randomKey(bytes) : string</text>
<text text-anchor="start" x="327" y="-249.2" font-family="Helvetica,sans-Serif" font-size="11.00">+ deriveKey(pw, salt) : string</text>
<text text-anchor="start" x="327" y="-237.2" font-family="Helvetica,sans-Serif" font-size="11.00">+ encrypt(text, key) : string</text>
<text text-anchor="start" x="327" y="-225.2" font-family="Helvetica,sans-Serif" font-size="11.00">+ decrypt(blob, key) : string</text>
<polygon fill="none" stroke="black" points="321.5,-217 321.5,-337 494.5,-337 494.5,-217 321.5,-217"/>
</g>
<!-- PasswordGenerator -->
<g id="node3" class="node">
<title>PasswordGenerator</title>
<polygon fill="#eef2ff" stroke="transparent" points="564.5,-4 564.5,-162 731.5,-162 731.5,-4 564.5,-4"/>
<polygon fill="#c7d2fe" stroke="transparent" points="566,-141 566,-161 731,-161 731,-141 566,-141"/>
<text text-anchor="start" x="587.5" y="-149.2" font-family="Helvetica,sans-Serif" font-weight="bold" font-size="11.00">PasswordGenerator</text>
<text text-anchor="start" x="570" y="-128.2" font-family="Helvetica,sans-Serif" font-size="11.00">&#45; lowercase : int</text>
<text text-anchor="start" x="570" y="-116.2" font-family="Helvetica,sans-Serif" font-size="11.00">&#45; uppercase : int</text>
<text text-anchor="start" x="570" y="-104.2" font-family="Helvetica,sans-Serif" font-size="11.00">&#45; digits : int</text>
<text text-anchor="start" x="570" y="-92.2" font-family="Helvetica,sans-Serif" font-size="11.00">&#45; special : int</text>
<text text-anchor="start" x="570" y="-80.2" font-family="Helvetica,sans-Serif" font-size="11.00">&#45; length : ?int</text>
<text text-anchor="start" x="570" y="-60.2" font-family="Helvetica,sans-Serif" font-size="11.00">+ __construct(l, u, d, s, len)</text>
<text text-anchor="start" x="570" y="-48.2" font-family="Helvetica,sans-Serif" font-size="11.00">+ fromPercentages(...) : self</text>
<text text-anchor="start" x="570" y="-36.2" font-family="Helvetica,sans-Serif" font-size="11.00">+ generate() : string</text>
<text text-anchor="start" x="570" y="-24.2" font-family="Helvetica,sans-Serif" font-size="11.00">&#45; take(chars, set, n) : void</text>
<text text-anchor="start" x="570" y="-12.2" font-family="Helvetica,sans-Serif" font-size="11.00">&#45; shuffle(chars) : void</text>
<polygon fill="none" stroke="black" points="564.5,-4 564.5,-162 731.5,-162 731.5,-4 564.5,-4"/>
</g>
<!-- Model -->
<g id="node4" class="node">
<title>Model</title>
<polygon fill="#fef9e7" stroke="transparent" points="91,-229 91,-325 279,-325 279,-229 91,-229"/>
<polygon fill="#fde68a" stroke="transparent" points="92,-294 92,-324 278,-324 278,-294 92,-294"/>
<text text-anchor="start" x="166" y="-312.2" font-family="Helvetica,sans-Serif" font-weight="bold" font-style="italic" font-size="11.00">Model</text>
<text text-anchor="start" x="144" y="-301.2" font-family="Helvetica,sans-Serif" font-style="italic" font-size="11.00">&lt;&lt;abstract&gt;&gt;</text>
<text text-anchor="start" x="96" y="-281.2" font-family="Helvetica,sans-Serif" font-size="11.00"># pdo : PDO</text>
<text text-anchor="start" x="96" y="-261.2" font-family="Helvetica,sans-Serif" font-size="11.00">+ table() : string &#160;{abstract}</text>
<text text-anchor="start" x="96" y="-249.2" font-family="Helvetica,sans-Serif" font-size="11.00"># insertRow(cols) : int</text>
<text text-anchor="start" x="96" y="-237.2" font-family="Helvetica,sans-Serif" font-size="11.00"># select(where, params) : array</text>
<polygon fill="none" stroke="black" points="91,-229 91,-325 279,-325 279,-229 91,-229"/>
</g>
<!-- Model&#45;&gt;Database -->
<g id="edge3" class="edge">
<title>Model&#45;&gt;Database</title>
<path fill="none" stroke="#6b7280" stroke-dasharray="5,2" d="M185,-329.38C185,-344.71 185,-361.66 185,-377.56"/>
<polygon fill="#6b7280" stroke="#6b7280" points="185,-387.83 180.5,-377.83 185,-382.83 185,-377.83 185,-377.83 185,-377.83 185,-382.83 189.5,-377.83 185,-387.83 185,-387.83"/>
<text text-anchor="middle" x="196.5" y="-362" font-family="Helvetica,sans-Serif" font-size="10.00">uses</text>
</g>
<!-- User -->
<g id="node5" class="node">
<title>User</title>
<polygon fill="#eafaf1" stroke="transparent" points="8,-28 8,-138 268,-138 268,-28 8,-28"/>
<polygon fill="#a7f3d0" stroke="transparent" points="9,-117 9,-137 267,-137 267,-117 9,-117"/>
<text text-anchor="start" x="123.5" y="-125.2" font-family="Helvetica,sans-Serif" font-weight="bold" font-size="11.00">User</text>
<text text-anchor="start" x="13" y="-104.2" font-family="Helvetica,sans-Serif" font-size="11.00">(maps to table: users)</text>
<text text-anchor="start" x="13" y="-84.2" font-family="Helvetica,sans-Serif" font-size="11.00">+ table() : string</text>
<text text-anchor="start" x="13" y="-72.2" font-family="Helvetica,sans-Serif" font-size="11.00">+ register(login, pw) : int</text>
<text text-anchor="start" x="13" y="-60.2" font-family="Helvetica,sans-Serif" font-size="11.00">+ authenticate(login, pw) : ?array</text>
<text text-anchor="start" x="13" y="-48.2" font-family="Helvetica,sans-Serif" font-size="11.00">+ changeMasterPassword(id, old, new) : void</text>
<text text-anchor="start" x="13" y="-36.2" font-family="Helvetica,sans-Serif" font-size="11.00">+ findByLogin(login) : ?array</text>
<polygon fill="none" stroke="black" points="8,-28 8,-138 268,-138 268,-28 8,-28"/>
</g>
<!-- User&#45;&gt;Crypto -->
<g id="edge4" class="edge">
<title>User&#45;&gt;Crypto</title>
<path fill="none" stroke="#6b7280" stroke-dasharray="5,2" d="M219.74,-142.13C248.4,-162.51 280.87,-185.6 310.68,-206.79"/>
<polygon fill="#6b7280" stroke="#6b7280" points="319.01,-212.72 308.25,-210.59 314.94,-209.82 310.86,-206.92 310.86,-206.92 310.86,-206.92 314.94,-209.82 313.47,-203.26 319.01,-212.72 319.01,-212.72"/>
<text text-anchor="middle" x="300.5" y="-187" font-family="Helvetica,sans-Serif" font-size="10.00">uses</text>
</g>
<!-- User&#45;&gt;Model -->
<g id="edge1" class="edge">
<title>User&#45;&gt;Model</title>
<path fill="none" stroke="#374151" d="M152.23,-142.13C157.88,-165.21 164.38,-191.77 170.1,-215.12"/>
<polygon fill="none" stroke="#374151" points="166.71,-216.02 172.49,-224.91 173.51,-214.36 166.71,-216.02"/>
</g>
<!-- PasswordEntry -->
<g id="node6" class="node">
<title>PasswordEntry</title>
<polygon fill="#eafaf1" stroke="transparent" points="302,-34 302,-132 530,-132 530,-34 302,-34"/>
<polygon fill="#a7f3d0" stroke="transparent" points="303,-111 303,-131 529,-131 529,-111 303,-111"/>
<text text-anchor="start" x="369.5" y="-119.2" font-family="Helvetica,sans-Serif" font-weight="bold" font-size="11.00">PasswordEntry</text>
<text text-anchor="start" x="307" y="-98.2" font-family="Helvetica,sans-Serif" font-size="11.00">(maps to table: password_entries)</text>
<text text-anchor="start" x="307" y="-78.2" font-family="Helvetica,sans-Serif" font-size="11.00">+ table() : string</text>
<text text-anchor="start" x="307" y="-66.2" font-family="Helvetica,sans-Serif" font-size="11.00">+ add(userId, service, secret, key) : int</text>
<text text-anchor="start" x="307" y="-54.2" font-family="Helvetica,sans-Serif" font-size="11.00">+ listForUser(userId, key) : array</text>
<text text-anchor="start" x="307" y="-42.2" font-family="Helvetica,sans-Serif" font-size="11.00">+ delete(id, userId) : void</text>
<polygon fill="none" stroke="black" points="302,-34 302,-132 530,-132 530,-34 302,-34"/>
</g>
<!-- PasswordEntry&#45;&gt;Crypto -->
<g id="edge5" class="edge">
<title>PasswordEntry&#45;&gt;Crypto</title>
<path fill="none" stroke="#6b7280" stroke-dasharray="5,2" d="M413.82,-136.21C412.97,-156.72 411.97,-180.63 411.05,-202.81"/>
<polygon fill="#6b7280" stroke="#6b7280" points="410.63,-212.86 406.55,-202.68 410.84,-207.86 411.05,-202.87 411.05,-202.87 411.05,-202.87 410.84,-207.86 415.54,-203.06 410.63,-212.86 410.63,-212.86"/>
<text text-anchor="middle" x="422.5" y="-187" font-family="Helvetica,sans-Serif" font-size="10.00">uses</text>
</g>
<!-- PasswordEntry&#45;&gt;Model -->
<g id="edge2" class="edge">
<title>PasswordEntry&#45;&gt;Model</title>
<path fill="none" stroke="#374151" d="M353.18,-136.21C322.64,-161.6 285.84,-192.19 254.46,-218.27"/>
<polygon fill="none" stroke="#374151" points="252.06,-215.71 246.61,-224.8 256.53,-221.1 252.06,-215.71"/>
</g>
</g>
</svg>
